# xmcd
#
# Track frame offsets: 
#        150
#        20836
#        37173
#        61061
#        78442
#        98133
#        119136
#        138736
#        161981
#        182920
#        195478
#        210026
#        226081
#        248008
#        275632
#        289916
#        312601
#        332387
#
# Disc length: 4676 seconds
#
# Revision: 0
# Processed by: cddbd v1.5.1PL2 Copyright (c) Steve Scherf et al.
# Submitted via: ExactAudioCopy v0.95b3
#
DISCID=0c124212
DTITLE=Various Artist - Windswept-Trio-Quartet Sampler [CD6]
DYEAR=2004
DGENRE=Pop/Rock
TTITLE0=LL Cool J - Back Seat
TTITLE1=Boy Howdy - She'd Give Anything
TTITLE2=Ahmad - Back In The Day
TTITLE3=Ace Of Base - Don't Turn Around
TTITLE4=OutKast - Player's Ball
TTITLE5=Goodie Mob - Cell Therapy
TTITLE6=Monica - Don't Take It Personal
TTITLE7=The Tony Rich Project - Nobidy Knows
TTITLE8=TLC - Waterfalls
TTITLE9=LeAnne Rimes - Blue
TTITLE10=Beck - Devil's Haircut
TTITLE11=Goodie Mob - Dirty South
TTITLE12=En Vogue - Don't Let Go (Love)
TTITLE13=Elvis Costello and Burt Bacharach - God Give Me Strength 
TTITLE14=Eels - Novacaine For The Soul
TTITLE15=Organized Noize - Set It Off
TTITLE16=Delinquent Habits - Tres Delinquentes
TTITLE17=Tupac Shakur - Heaven Ain't Hard To Find
EXTD=
EXTT0=
EXTT1=
EXTT2=
EXTT3=
EXTT4=
EXTT5=
EXTT6=
EXTT7=
EXTT8=
EXTT9=
EXTT10=
EXTT11=
EXTT12=
EXTT13=
EXTT14=
EXTT15=
EXTT16=
EXTT17=
PLAYORDER=
